<svg width="80" height="80" viewBox="0 0 80 80" fill="none" xmlns="http://www.w3.org/2000/svg">
<path d="M27.5624 28.3236C32.0318 25.582 35.9327 26.6869 38.276 28.4467C39.237 29.1683 39.7173 29.529 40 29.529C40.2827 29.529 40.763 29.1683 41.724 28.4467C44.0673 26.6869 47.9683 25.582 52.4377 28.3236C58.3033 31.9216 59.6303 43.7913 46.1007 53.8057C43.5237 55.713 42.2353 56.6667 40 56.6667C37.7647 56.6667 36.4763 55.713 33.8993 53.8057C20.3695 43.7913 21.6968 31.9216 27.5624 28.3236Z" fill="white" stroke="white" stroke-width="1.5" stroke-linecap="round"/>
<path d="M73.3333 40C73.3333 21.5905 58.4093 6.66667 40 6.66667C21.5905 6.66667 6.66667 21.5905 6.66667 40C6.66667 58.4093 21.5905 73.3333 40 73.3333C58.4093 73.3333 73.3333 58.4093 73.3333 40Z" stroke="white" stroke-width="1.5"/>
</svg>
